PathFileType	4	(X/Y/Z)	..\data\2014050\dynamic\2014050_C5_05.trc
DataRate	CameraRate	NumFrames	NumMarkers	Units	OrigDataRate	OrigDataStartFrame	OrigNumFrames
100.000000	100.000000	4	52	mm	100.000000	124	142
Frame#	Time	L_IAS			L_IPS			R_IPS			R_IAS			L_FTC			L_FLE			L_FME			L_FAX			L_TTC			L_FAL			L_TAM			L_FCC			L_FM1			L_FM2			L_FM5			R_FTC			R_FLE			R_FME			R_FAX			R_TTC			R_FAL			R_TAM			R_FCC			R_FM1			R_FM2			R_FM5			CV7			TV10			SXS			SJN			L_SIA			L_SRS			L_SAA			L_SAE			L_HLE			L_HME			L_UOA			L_RSP			L_UHE			L_HM2			L_HM5			R_SIA			R_SRS			R_SAA			R_SAE			R_HLE			R_HME			R_UOA			R_RSP			R_UHE			R_HM2			R_HM5			
		X1	Y1	Z1	X2	Y2	Z2	X3	Y3	Z3	X4	Y4	Z4	X5	Y5	Z5	X6	Y6	Z6	X7	Y7	Z7	X8	Y8	Z8	X9	Y9	Z9	X10	Y10	Z10	X11	Y11	Z11	X12	Y12	Z12	X13	Y13	Z13	X14	Y14	Z14	X15	Y15	Z15	X16	Y16	Z16	X17	Y17	Z17	X18	Y18	Z18	X19	Y19	Z19	X20	Y20	Z20	X21	Y21	Z21	X22	Y22	Z22	X23	Y23	Z23	X24	Y24	Z24	X25	Y25	Z25	X26	Y26	Z26	X27	Y27	Z27	X28	Y28	Z28	X29	Y29	Z29	X30	Y30	Z30	X31	Y31	Z31	X32	Y32	Z32	X33	Y33	Z33	X34	Y34	Z34	X35	Y35	Z35	X36	Y36	Z36	X37	Y37	Z37	X38	Y38	Z38	X39	Y39	Z39	X40	Y40	Z40	X41	Y41	Z41	X42	Y42	Z42	X43	Y43	Z43	X44	Y44	Z44	X45	Y45	Z45	X46	Y46	Z46	X47	Y47	Z47	X48	Y48	Z48	X49	Y49	Z49	X50	Y50	Z50	X51	Y51	Z51	X52	Y52	Z52	

125	1.24	1835.895874023438	886.8071289062502	-343.6983947753907	1639.390258789063	910.3269042968752	-286.0312805175782	1645.130249023438	899.8472290039065	-178.04296875	1843.766967773438	889.1563720703127	-137.2920227050782	1768.619506835938	804.769470214844	-433.3925781250001	1689.509765625	426.9020996093751	-367.6981506347657	1705.296142578125	426.8995666503907	-232.9050903320313	1649.902709960938	371.9094848632813	-365.5409545898438	1708.824829101563	353.6866455078126	-314.3777465820313	1574.620239257813	72.79990386962892	-313.4518432617188	1597.0009765625	78.04846954345705	-228.6475524902344	1525.256958007813	32.81153869628907	-258.0711975097657	1697.824096679688	15.86726379394532	-250.3209533691407	1704.20458984375	30.12319564819337	-304.5852966308594	1656.00830078125	11.55902862548828	-351.3304443359376	1782.799072265625	776.053649902344	-47.32176208496094	1929.529052734375	448.7086486816407	-97.53318023681643	1956.385864257813	450.2383422851564	-232.5465393066407	1902.313354492188	392.5103759765626	-95.80006408691408	1977.660400390625	389.9342041015626	-144.9721069335938	1879.454711914063	70.08818817138673	-134.8640594482422	1906.444946289063	88.92433166503908	-219.4019317626954	1844.591674804688	25.2955551147461	-187.2498626708985	2021.87890625	35.00114822387696	-198.3244171142579	2012.448120117188	59.29326629638673	-148.1161804199219	1977.0078125	37.65295791625977	-104.8363876342774	1727.781860351563	1376.59912109375	-252.7947387695313	1637.964111328125	1159.712036132813	-246.2978973388672	1856.144287109375	1054.536743164063	-234.9876708984376	1834.523193359375	1282.899536132813	-244.3497009277344	1646.032348632813	1198.992065429688	-338.7135314941407	1687.146606445313	1310.508911132813	-348.1267395019532	1741.317504882813	1314.046508789063	-410.876434326172	1788.792358398438	1315.486083984375	-416.9042968750001	1840.917114257813	1028.274169921875	-504.5760803222657	1816.663452148438	997.1121215820315	-428.6080322265626	1832.06640625	979.4058227539065	-482.5551757812501	2042.436279296875	892.1968994140627	-462.8203430175782	1999.41259765625	861.7733154296877	-510.1670532226564	2109.5927734375	848.7086181640627	-471.258758544922	2031.953369140625	805.3530883789065	-509.4060058593751	1631.887939453125	1212.236938476563	-174.3824157714844	1680.437866210938	1316.368896484375	-165.4133453369141	1726.335815429688	1323.535888671875	-93.35861206054689	1782.455200195313	1321.232543945313	-80.56243896484376	1653.740844726563	1042.196655273438	-11.7110652923584	1608.746704101563	1050.932373046875	-79.12107086181642	1607.973266601563	1030.115356445313	-29.57611846923829	1628.942749023438	809.0784301757815	-22.10554885864258	1570.005126953125	837.3819580078127	10.91702842712403	1608.342407226563	725.4244384765626	-13.79838466644287	1529.62744140625	775.6425781250002	12.99129867553711	
126	1.25	1851.0986328125	884.3199462890627	-344.7455749511719	1655.2470703125	908.1844482421877	-284.6542053222657	1662.008666992188	897.5764160156252	-176.689682006836	1861.324829101563	887.034118652344	-137.5359497070313	1782.2919921875	803.1968383789065	-433.7268371582032	1694.975708007813	427.529754638672	-367.4461975097657	1711.142944335938	427.1840209960939	-232.5998992919922	1654.431274414063	373.2600402832032	-365.2082214355469	1713.340576171875	354.0429992675782	-314.1766357421876	1575.493408203125	75.25160980224611	-313.2107238769532	1597.813598632813	79.81838226318361	-228.2928161621094	1525.549926757813	35.8205795288086	-257.6579589843751	1698.006591796875	16.02033615112305	-250.4602661132813	1704.376586914063	30.37443733215333	-304.7313232421876	1655.917602539063	12.04812908172608	-351.0272216796876	1800.770141601563	774.5817871093752	-47.00724411010743	1949.4306640625	447.738494873047	-98.71492004394534	1974.645141601563	450.0631713867189	-234.1373901367188	1925.386596679688	389.7877807617189	-96.95906066894534	2000.33251953125	391.7983703613282	-146.7401733398438	1926.333129882813	66.95542144775392	-136.7797393798828	1951.540161132813	88.0093231201172	-221.4410552978516	1894.41064453125	19.91169738769532	-189.3831176757813	2069.994140625	42.14614486694337	-201.9006347656251	2059.670654296875	65.20598602294923	-151.419189453125	2026.207641601563	40.91833877563477	-107.8412246704102	1744.080078125	1374.920288085938	-252.228256225586	1654.169555664063	1158.063842773438	-246.2902374267579	1872.400634765625	1052.369750976563	-235.3160858154297	1850.741577148438	1280.9677734375	-243.8612823486329	1662.953369140625	1197.432373046875	-339.2520141601563	1703.944213867188	1309.159057617188	-348.4344482421876	1758.511962890625	1313.008911132813	-411.0084228515626	1806.147827148438	1314.732543945313	-416.3709106445314	1866.4892578125	1030.68994140625	-505.8003234863282	1841.958618164063	997.6934204101565	-430.9652099609376	1859.519653320313	980.635681152344	-484.0436096191407	2074.47021484375	906.4152832031252	-459.271453857422	2034.421508789063	872.9901123046877	-507.1107482910157	2143.970947265625	867.0970458984377	-465.8327636718751	2070.578369140625	818.7658691406252	-505.5107727050782	1647.884887695313	1210.197875976563	-175.2826690673828	1696.643432617188	1314.251586914063	-165.5232696533203	1742.244506835938	1321.608642578125	-93.36223602294923	1798.676879882813	1318.853637695313	-79.9724578857422	1661.251220703125	1043.7958984375	-12.86301803588868	1616.583251953125	1054.466918945313	-80.48980712890626	1614.972534179688	1033.582763671875	-31.28349685668946	1626.901733398438	811.664978027344	-25.28874588012696	1569.73291015625	842.441833496094	8.448611259460451	1602.1337890625	728.7639160156251	-18.0574016571045	1526.138061523438	782.831237792969	10.03201866149903	
127	1.26	1866.367797851563	881.7874145507815	-345.9083251953126	1671.231201171875	905.8120727539065	-283.0012512207032	1679.092041015625	894.9750976562502	-175.1923828125	1879.04638671875	884.6880493164065	-137.697006225586	1795.606567382813	801.6499633789065	-433.9497680664064	1701.071655273438	428.1715087890626	-367.3165588378907	1717.67529296875	427.4379272460939	-232.4508514404297	1659.590454101563	374.6390075683594	-365.0224304199219	1718.387329101563	354.3660583496094	-314.1147155761719	1576.479736328125	77.90258789062501	-313.2331848144532	1598.64453125	81.77313232421876	-228.1857910156251	1525.776611328125	39.12213897705079	-257.5583496093751	1698.18994140625	16.20128059387207	-250.6833648681641	1704.575439453125	30.6473617553711	-304.9667663574219	1655.840942382813	12.4928150177002	-350.8241882324219	1818.771484375	772.7656250000002	-46.68992996215821	1968.617553710938	446.3649291992189	-99.75225830078128	1992.017944335938	449.0580139160157	-235.6809387207032	1947.861450195313	387.0122985839845	-98.026237487793	2022.244140625	393.2723083496095	-148.3586578369141	1971.856811523438	64.98940277099611	-138.4433898925782	1995.251831054688	87.98070526123048	-223.1479492187501	1942.731567382813	15.8828296661377	-191.2305603027344	2116.205322265625	50.14210128784181	-205.3152160644532	2105.205078125	72.00225067138673	-154.5357360839844	2073.78466796875	45.14462661743165	-110.6494979858399	1760.390625	1373.014282226563	-251.5787048339844	1670.40673828125	1156.154907226563	-246.1823120117188	1888.7666015625	1049.895385742188	-235.4902496337891	1867.018676757813	1278.759643554688	-243.2962188720704	1679.900268554688	1195.595092773438	-339.6589965820313	1720.77099609375	1307.606811523438	-348.6724853515626	1775.747802734375	1311.779296875	-411.0404663085939	1823.566772460938	1313.7646484375	-415.726531982422	1891.827392578125	1033.259399414063	-506.9163513183595	1866.595703125	998.141540527344	-433.527801513672	1886.481811523438	982.0476684570315	-485.5415039062501	2104.963134765625	920.4187622070315	-455.4786071777345	2068.133056640625	884.4416503906252	-503.968231201172	2176.446044921875	885.305358886719	-460.1569824218751	2107.626708984375	832.4919433593752	-501.5826110839845	1663.969116210938	1207.9560546875	-176.0863342285157	1712.857788085938	1311.936767578125	-165.5942840576172	1758.097290039063	1319.598266601563	-93.4253616333008	1814.911010742188	1316.425170898438	-79.4285354614258	1668.868530273438	1045.623168945313	-13.781888961792	1624.766357421875	1058.016235351563	-81.70909881591798	1622.345825195313	1037.110717773438	-32.78181076049805	1626.206909179688	814.6910400390627	-28.62318229675294	1570.706420898438	847.4810791015627	5.800415039062501	1597.9580078125	732.9101562500001	-22.83368301391602	1524.315673828125	789.8726806640627	6.619740486145021	
128	1.27	1881.765747070313	879.2744140625002	-347.1347045898438	1687.398193359375	903.308532714844	-281.0551147460938	1696.41845703125	892.136169433594	-173.543930053711	1896.93505859375	882.2169189453127	-137.8140106201172	1808.680908203125	800.174255371094	-434.0140991210939	1707.855102539063	428.8278808593751	-367.3114624023438	1724.9541015625	427.6576538085939	-232.4602813720704	1665.4345703125	376.0473327636719	-364.9848022460938	1724.021240234375	354.6356201171876	-314.1956481933594	1577.59814453125	80.74855804443361	-313.5332336425782	1599.51025390625	83.91534423828126	-228.3525848388672	1525.97509765625	42.73320388793946	-257.7843017578126	1698.370483398438	16.37759017944336	-250.967269897461	1704.797607421875	30.90280151367188	-305.2723693847657	1655.77197265625	12.85492038726807	-350.7193908691407	1836.859497070313	770.6629638671877	-46.37372207641602	1987.258178710938	444.677703857422	-100.6598510742188	2008.63720703125	447.3343505859376	-237.1908874511719	1969.798950195313	384.2645263671876	-99.00574493408206	2043.497436523438	394.3718872070314	-149.8719177246094	2015.494140625	63.9924774169922	-139.8632354736328	2037.100830078125	88.64593505859376	-224.5430603027344	1988.937255859375	13.03444957733155	-192.7933197021485	2160.089599609375	58.58203887939455	-208.5391540527344	2148.61279296875	79.3061981201172	-157.450439453125	2119.2158203125	49.99448013305665	-113.2594604492188	1776.712280273438	1370.925415039063	-250.8511962890626	1686.69921875	1154.018676757813	-245.9898071289063	1905.268188476563	1047.220581054688	-235.5030975341797	1883.359252929688	1276.3447265625	-242.6526031494141	1696.879150390625	1193.532348632813	-339.9321899414063	1737.60888671875	1305.903930664063	-348.8200378417969	1792.991333007813	1310.421020507813	-410.9393920898439	1841.005615234375	1312.664916992188	-414.9542541503907	1916.839233398438	1035.979125976563	-507.8510131835939	1890.57470703125	998.5032348632815	-436.1575317382814	1912.879760742188	983.6352539062502	-486.9703063964845	2133.92041015625	933.9942016601565	-451.5556945800782	2100.426025390625	895.909851074219	-500.7844848632814	2207.036865234375	903.0661621093752	-454.4170837402345	2142.948486328125	846.258728027344	-497.6653442382814	1680.153686523438	1205.55615234375	-176.799072265625	1729.077026367188	1309.469116210938	-165.6329498291016	1773.906005859375	1317.558837890625	-93.56134033203126	1831.145629882813	1314.017211914063	-78.94476318359376	1676.674438476563	1047.684814453125	-14.51595211029053	1633.400390625	1061.560424804688	-82.81917572021486	1630.18017578125	1040.687866210938	-34.08566284179688	1626.924682617188	818.054138183594	-32.02761459350587	1572.941040039063	852.4107055664065	3.043344497680665	1595.842895507813	737.7332763671876	-28.08381843566895	1524.137573242188	796.6826782226565	2.812855243682862	
